Normalized EMG Linear Envelopes
nRows=261
nColumns=4

endheader
time	 med_gas_r	  soleus_r	 tib_ant_r	
2.79418	  0.127615	  0.110862	  0.035349	
2.82744	  0.128757	  0.107807	  0.035347	
2.8607	  0.130722	  0.106043	  0.035362	
2.89397	  0.133338	  0.106197	  0.035395	
2.92723	  0.136983	  0.108227	  0.035509	
2.9605	  0.141470	  0.111542	  0.035762	
2.99376	  0.144983	  0.115156	  0.036029	
3.02702	  0.145769	  0.118405	  0.036235	
3.06029	  0.145234	  0.121131	  0.036470	
3.09355	  0.145631	  0.123240	  0.036819	
3.12682	  0.147992	  0.124628	  0.037066	
3.16008	  0.152079	  0.125100	  0.037141	
3.19334	  0.156658	  0.124344	  0.037133	
3.22661	  0.159317	  0.122276	  0.037106	
3.25987	  0.159994	  0.119548	  0.037080	
3.29314	  0.160187	  0.117018	  0.037047	
3.3264	  0.160708	  0.115177	  0.036928	
3.35966	  0.162122	  0.113930	  0.036729	
3.39293	  0.163356	  0.113281	  0.036469	
3.42619	  0.163797	  0.113384	  0.036068	
3.45946	  0.164483	  0.113980	  0.035586	
3.49272	  0.165399	  0.114752	  0.035238	
3.52598	  0.166258	  0.115887	  0.035071	
3.55925	  0.166744	  0.117674	  0.035039	
3.59251	  0.166474	  0.120032	  0.035168	
3.62578	  0.167129	  0.122144	  0.035479	
3.65904	  0.169939	  0.123260	  0.035840	
3.6923	  0.174333	  0.123117	  0.036040	
3.72557	  0.178363	  0.121701	  0.036158	
3.75883	  0.179796	  0.119908	  0.036235	
3.7921	  0.179248	  0.118776	  0.036341	
3.82536	  0.178062	  0.118722	  0.036595	
3.85862	  0.177113	  0.119536	  0.036944	
3.89189	  0.176063	  0.120431	  0.037216	
3.92515	  0.172959	  0.120907	  0.037393	
3.95842	  0.168373	  0.120953	  0.037683	
3.99168	  0.164302	  0.120422	  0.038060	
4.02494	  0.162218	  0.119202	  0.038477	
4.05821	  0.162447	  0.117729	  0.038933	
4.09147	  0.164076	  0.116754	  0.039215	
4.12474	  0.166865	  0.116859	  0.039118	
4.158	  0.170855	  0.118493	  0.038624	
4.19126	  0.175642	  0.121785	  0.037728	
4.22453	  0.180236	  0.126466	  0.036570	
4.25779	  0.182901	  0.131534	  0.035276	
4.29106	  0.184432	  0.135574	  0.034008	
4.32432	  0.186392	  0.138051	  0.033134	
4.35758	  0.189187	  0.139389	  0.033243	
4.39085	  0.192468	  0.139938	  0.034950	
4.42411	  0.197013	  0.139285	  0.039032	
4.45738	  0.202914	  0.137728	  0.046402	
4.49064	  0.208631	  0.136034	  0.057825	
4.5239	  0.212120	  0.134586	  0.073761	
4.55717	  0.213612	  0.133629	  0.094095	
4.59043	  0.214622	  0.133464	  0.117731	
4.6237	  0.215676	  0.134029	  0.142259	
4.65696	  0.216689	  0.134693	  0.163299	
4.69022	  0.219184	  0.134694	  0.177761	
4.72349	  0.222653	  0.133679	  0.186913	
4.75675	  0.223996	  0.131481	  0.192501	
4.79002	  0.222207	  0.128352	  0.196546	
4.82328	  0.218821	  0.124743	  0.201305	
4.85654	  0.214884	  0.121099	  0.207652	
4.88981	  0.211019	  0.118028	  0.214954	
4.92307	  0.209235	  0.115864	  0.221882	
4.95634	  0.209729	  0.114765	  0.230011	
4.9896	  0.210641	  0.114367	  0.240934	
5.02286	  0.211654	  0.113836	  0.254156	
5.05613	  0.213626	  0.113287	  0.268873	
5.08939	  0.215508	  0.113316	  0.283232	
5.12266	  0.215079	  0.113957	  0.295226	
5.15592	  0.212810	  0.115017	  0.304244	
5.18918	  0.209492	  0.116271	  0.311764	
5.22245	  0.205008	  0.117394	  0.318913	
5.25571	  0.200496	  0.118798	  0.324504	
5.28898	  0.197786	  0.120786	  0.328957	
5.32224	  0.197004	  0.123173	  0.332704	
5.3555	  0.197325	  0.126183	  0.335555	
5.38877	  0.198245	  0.129799	  0.337931	
5.42203	  0.200219	  0.133348	  0.339113	
5.4553	  0.203092	  0.136437	  0.339400	
5.48856	  0.205789	  0.138500	  0.339939	
5.52182	  0.208376	  0.139335	  0.338293	
5.55509	  0.211807	  0.139181	  0.335689	
5.58835	  0.215797	  0.138619	  0.334545	
5.62162	  0.220722	  0.138185	  0.335650	
5.65488	  0.227930	  0.138111	  0.340994	
5.68814	  0.237296	  0.138080	  0.351714	
5.72141	  0.246853	  0.137720	  0.365023	
5.75467	  0.253255	  0.137259	  0.378474	
5.78794	  0.258574	  0.136827	  0.391683	
5.8212	  0.266614	  0.136462	  0.401846	
5.85446	  0.277648	  0.135902	  0.409042	
5.88773	  0.290081	  0.134543	  0.413344	
5.92099	  0.302376	  0.131829	  0.415003	
5.95426	  0.309650	  0.127639	  0.415464	
5.98752	  0.308901	  0.122721	  0.414418	
6.02078	  0.305153	  0.118061	  0.413162	
6.05405	  0.302953	  0.114608	  0.414063	
6.08731	  0.303063	  0.113142	  0.416867	
6.12058	  0.304692	  0.113905	  0.420153	
6.15384	  0.307248	  0.116577	  0.422464	
6.1871	  0.308393	  0.120385	  0.422860	
6.22037	  0.308110	  0.124414	  0.421029	
6.25363	  0.309790	  0.128256	  0.415862	
6.2869	  0.316916	  0.131892	  0.411702	
6.32016	  0.329958	  0.135123	  0.414114	
6.35342	  0.344691	  0.137894	  0.425489	
6.38669	  0.355434	  0.140925	  0.443223	
6.41995	  0.363071	  0.144785	  0.462039	
6.45322	  0.371040	  0.148988	  0.480445	
6.48648	  0.380233	  0.152786	  0.499317	
6.51974	  0.388734	  0.156068	  0.517324	
6.55301	  0.394789	  0.158480	  0.531359	
6.58627	  0.395672	  0.159803	  0.542175	
6.61954	  0.394332	  0.160342	  0.549892	
6.6528	  0.392792	  0.160639	  0.556620	
6.68606	  0.391084	  0.160987	  0.564068	
6.71933	  0.386357	  0.160920	  0.571158	
6.75259	  0.376132	  0.159851	  0.575522	
6.78586	  0.363038	  0.157952	  0.578737	
6.81912	  0.352145	  0.155569	  0.579464	
6.85238	  0.346008	  0.152417	  0.574226	
6.88565	  0.342057	  0.148665	  0.562661	
6.91891	  0.337128	  0.145222	  0.546377	
6.95218	  0.334730	  0.142416	  0.531064	
6.98544	  0.337771	  0.139756	  0.521162	
7.0187	  0.344344	  0.136768	  0.518628	
7.05197	  0.349949	  0.133555	  0.526535	
7.08523	  0.355850	  0.130681	  0.543571	
7.1185	  0.363831	  0.128532	  0.566891	
7.15176	  0.371545	  0.127026	  0.592394	
7.18502	  0.376027	  0.126456	  0.614123	
7.21829	  0.380433	  0.127297	  0.629460	
7.25155	  0.387584	  0.129668	  0.634203	
7.28482	  0.395710	  0.132655	  0.629579	
7.31808	  0.399876	  0.135095	  0.623076	
7.35134	  0.398210	  0.135838	  0.618285	
7.38461	  0.394405	  0.134822	  0.617110	
7.41787	  0.389604	  0.132993	  0.621547	
7.45114	  0.382800	  0.130849	  0.628026	
7.4844	  0.374302	  0.128427	  0.634657	
7.51766	  0.368016	  0.126474	  0.639405	
7.55093	  0.364293	  0.125682	  0.641974	
7.58419	  0.361813	  0.126125	  0.643112	
7.61746	  0.359719	  0.127328	  0.645231	
7.65072	  0.361852	  0.129493	  0.649724	
7.68398	  0.369316	  0.132924	  0.654600	
7.71725	  0.381244	  0.137199	  0.660202	
7.75051	  0.393479	  0.141176	  0.667817	
7.78378	  0.400991	  0.143577	  0.676096	
7.81704	  0.402733	  0.144520	  0.683458	
7.8503	  0.400165	  0.145411	  0.688445	
7.88357	  0.393195	  0.147429	  0.691935	
7.91683	  0.381729	  0.150784	  0.694596	
7.9501	  0.370579	  0.155212	  0.697782	
7.98336	  0.363376	  0.160256	  0.700874	
8.01662	  0.360494	  0.164837	  0.704353	
8.04989	  0.357470	  0.167889	  0.709399	
8.08315	  0.352880	  0.169137	  0.718505	
8.11642	  0.349621	  0.169036	  0.733718	
8.14968	  0.347217	  0.167713	  0.752377	
8.18294	  0.342915	  0.164979	  0.770685	
8.21621	  0.336777	  0.161158	  0.786332	
8.24947	  0.333785	  0.157701	  0.795591	
8.28274	  0.337108	  0.155627	  0.797626	
8.316	  0.345270	  0.155129	  0.789773	
8.34926	  0.355591	  0.156044	  0.771860	
8.38253	  0.368393	  0.158185	  0.750749	
8.41579	  0.381471	  0.161105	  0.732408	
8.44906	  0.389041	  0.164690	  0.720001	
8.48232	  0.392238	  0.169009	  0.712672	
8.51558	  0.396668	  0.173611	  0.708905	
8.54885	  0.402860	  0.178517	  0.705155	
8.58211	  0.405992	  0.183110	  0.697881	
8.61538	  0.403173	  0.186298	  0.686464	
8.64864	  0.399138	  0.187749	  0.675015	
8.6819	  0.397532	  0.186826	  0.668441	
8.71517	  0.397620	  0.184304	  0.671602	
8.74843	  0.397169	  0.180550	  0.685873	
8.7817	  0.396560	  0.175113	  0.708827	
8.81496	  0.397789	  0.168427	  0.735103	
8.84822	  0.400901	  0.161696	  0.756737	
8.88149	  0.403865	  0.156203	  0.769260	
8.91475	  0.405818	  0.152906	  0.774403	
8.94802	  0.410103	  0.151665	  0.775315	
8.98128	  0.418924	  0.151582	  0.778250	
9.01454	  0.428776	  0.151865	  0.788550	
9.04781	  0.433937	  0.153227	  0.804847	
9.08107	  0.435066	  0.156162	  0.822984	
9.11434	  0.435136	  0.159962	  0.840323	
9.1476	  0.433913	  0.163276	  0.853812	
9.18086	  0.427478	  0.165127	  0.860542	
9.21413	  0.417056	  0.165573	  0.858789	
9.24739	  0.407747	  0.165879	  0.847506	
9.28066	  0.401982	  0.166863	  0.832630	
9.31392	  0.395345	  0.168506	  0.819777	
9.34718	  0.384845	  0.171054	  0.812040	
9.38045	  0.374534	  0.175380	  0.810241	
9.41371	  0.367183	  0.181206	  0.814382	
9.44698	  0.359059	  0.187271	  0.823867	
9.48024	  0.347284	  0.191776	  0.837799	
9.5135	  0.336043	  0.193864	  0.854772	
9.54677	  0.327669	  0.193755	  0.870362	
9.58003	  0.319760	  0.192013	  0.880564	
9.6133	  0.313294	  0.189039	  0.888321	
9.64656	  0.313345	  0.185343	  0.896212	
9.67982	  0.321577	  0.181629	  0.901555	
9.71309	  0.334315	  0.178522	  0.905276	
9.74635	  0.346307	  0.176519	  0.907477	
9.77962	  0.358088	  0.175761	  0.911614	
9.81288	  0.370271	  0.176875	  0.924311	
9.84614	  0.379727	  0.180148	  0.946587	
9.87941	  0.384561	  0.185689	  0.970169	
9.91267	  0.390161	  0.193848	  0.985964	
9.94594	  0.400642	  0.204219	  0.995019	
9.9792	  0.414316	  0.214873	  0.999409	
10.0125	  0.431801	  0.222976	  0.999416	
10.0457	  0.458455	  0.226585	  0.994195	
10.079	  0.496113	  0.226218	  0.982825	
10.1123	  0.541259	  0.223994	  0.967080	
10.1455	  0.589333	  0.221030	  0.948072	
10.1788	  0.636593	  0.217582	  0.931405	
10.212	  0.670025	  0.212734	  0.918268	
10.2453	  0.681818	  0.205340	  0.902500	
10.2786	  0.688588	  0.195793	  0.879938	
10.3118	  0.704242	  0.185468	  0.852481	
10.3451	  0.728352	  0.175880	  0.823485	
10.3784	  0.749062	  0.167986	  0.794050	
10.4116	  0.753261	  0.161875	  0.762814	
10.4449	  0.723802	  0.157953	  0.729443	
10.4782	  0.662644	  0.156645	  0.693486	
10.5114	  0.586484	  0.157864	  0.654332	
10.5447	  0.514142	  0.161146	  0.615547	
10.578	  0.456863	  0.166237	  0.582153	
10.6112	  0.416684	  0.172845	  0.553972	
10.6445	  0.388403	  0.180758	  0.529937	
10.6777	  0.368627	  0.188831	  0.510105	
10.711	  0.360037	  0.195288	  0.492477	
10.7443	  0.361908	  0.199770	  0.473226	
10.7775	  0.369739	  0.203346	  0.450275	
10.8108	  0.379476	  0.206059	  0.424594	
10.8441	  0.390833	  0.207233	  0.399915	
10.8773	  0.405158	  0.206352	  0.381588	
10.9106	  0.418325	  0.203245	  0.368965	
10.9439	  0.425496	  0.198311	  0.357422	
10.9771	  0.428101	  0.190978	  0.346258	
11.0104	  0.429314	  0.181573	  0.337011	
11.0436	  0.427741	  0.171810	  0.329020	
11.0769	  0.419596	  0.163232	  0.320421	
11.1102	  0.407799	  0.156541	  0.310719	
11.1434	  0.398493	  0.152220	  0.302298	
11.1767	  0.393191	  0.150665	  0.297736	
11.21	  0.387133	  0.150999	  0.295826	
11.2432	  0.375223	  0.152274	  0.294439	
11.2765	  0.362272	  0.153334	  0.291089	
11.3098	  0.353626	  0.153568	  0.287049	
11.343	  0.348935	  0.153107	  0.284879	
11.3763	  0.343186	  0.152701	  0.284869	
11.4096	  0.332616	  0.152584	  0.286017	
11.4428	  0.321382	  0.152896	  0.284381	
